<?xml version="1.0" encoding="UTF-8"?>
<svg xmlns="http://www.w3.org/2000/svg" xmlns:xlink="http://www.w3.org/1999/xlink" width="32pt" height="32pt" viewBox="0 0 32 32" version="1.1">
<g id="surface1">
<path style=" stroke:none;fill-rule:nonzero;fill:rgb(0%,0%,0%);fill-opacity:1;" d="M 27.175781 10.6875 C 27.175781 10.6875 27.171875 10.6875 27.171875 10.6875 L 0.457031 10.6875 C 0.207031 10.6875 0 10.890625 0 11.144531 L 0 23.96875 C 0 24.222656 0.203125 24.425781 0.457031 24.425781 L 18.625 24.425781 C 18.878906 24.425781 19.082031 24.222656 19.082031 23.96875 C 19.082031 23.714844 18.878906 23.511719 18.625 23.511719 L 0.914062 23.511719 L 0.914062 11.601562 L 26.714844 11.601562 L 26.714844 12.75 C 26.714844 13 26.917969 13.207031 27.171875 13.207031 C 27.425781 13.207031 27.632812 13 27.632812 12.75 L 27.632812 11.144531 C 27.632812 10.894531 27.425781 10.6875 27.175781 10.6875 Z M 27.175781 10.6875 "/>
<path style=" stroke:none;fill-rule:nonzero;fill:rgb(0%,0%,0%);fill-opacity:1;" d="M 24.066406 8.5625 L 2.695312 3.753906 C 2.578125 3.726562 2.453125 3.746094 2.351562 3.8125 C 2.246094 3.878906 2.175781 3.980469 2.148438 4.101562 L 1.078125 8.910156 C 1.023438 9.15625 1.179688 9.402344 1.425781 9.457031 C 1.675781 9.511719 1.917969 9.355469 1.972656 9.105469 L 2.941406 4.746094 L 23.867188 9.453125 C 23.898438 9.460938 23.933594 9.464844 23.96875 9.464844 C 24.222656 9.464844 24.425781 9.261719 24.425781 9.007812 C 24.425781 8.792969 24.277344 8.609375 24.066406 8.5625 Z M 24.066406 8.5625 "/>
<path style=" stroke:none;fill-rule:nonzero;fill:rgb(0%,0%,0%);fill-opacity:1;" d="M 21.472656 5.910156 L 8.648438 0.570312 C 8.425781 0.476562 8.167969 0.570312 8.0625 0.789062 L 6.992188 2.925781 C 6.871094 3.148438 6.957031 3.425781 7.179688 3.546875 C 7.402344 3.667969 7.679688 3.585938 7.800781 3.359375 C 7.804688 3.351562 7.8125 3.34375 7.816406 3.335938 L 8.691406 1.582031 L 21.121094 6.757812 C 21.351562 6.855469 21.621094 6.746094 21.71875 6.511719 C 21.816406 6.277344 21.707031 6.007812 21.472656 5.910156 Z M 21.472656 5.910156 "/>
<path style=" stroke:none;fill-rule:nonzero;fill:rgb(0%,0%,0%);fill-opacity:1;" d="M 21.796875 12.824219 L 17.554688 12.824219 C 17.304688 12.824219 17.097656 13.03125 17.097656 13.28125 C 17.097656 13.535156 17.304688 13.742188 17.554688 13.742188 L 21.796875 13.742188 C 22.050781 13.742188 22.253906 13.535156 22.253906 13.28125 C 22.253906 13.03125 22.050781 12.824219 21.796875 12.824219 Z M 21.796875 12.824219 "/>
<path style=" stroke:none;fill-rule:nonzero;fill:rgb(0%,0%,0%);fill-opacity:1;" d="M 13.28125 12.855469 C 10.683594 12.855469 8.578125 14.960938 8.578125 17.558594 C 8.582031 20.152344 10.6875 22.257812 13.28125 22.257812 C 15.878906 22.257812 17.984375 20.152344 17.984375 17.558594 C 17.984375 14.960938 15.878906 12.855469 13.28125 12.855469 Z M 13.28125 21.402344 C 11.15625 21.402344 9.433594 19.679688 9.433594 17.558594 C 9.4375 15.433594 11.15625 13.710938 13.28125 13.710938 C 15.40625 13.710938 17.128906 15.433594 17.128906 17.558594 C 17.128906 19.679688 15.40625 21.402344 13.28125 21.402344 Z M 13.28125 21.402344 "/>
<path style=" stroke:none;fill-rule:nonzero;fill:rgb(0%,0%,0%);fill-opacity:1;" d="M 26.105469 14.351562 C 23.273438 14.351562 20.226562 15.019531 20.226562 16.488281 L 20.226562 29.3125 C 20.226562 30.78125 23.273438 31.449219 26.105469 31.449219 C 28.9375 31.449219 31.980469 30.78125 31.980469 29.3125 L 31.980469 16.488281 C 31.980469 15.019531 28.9375 14.351562 26.105469 14.351562 Z M 30.914062 29.304688 C 30.832031 29.601562 29.230469 30.378906 26.105469 30.378906 C 22.980469 30.378906 21.375 29.601562 21.296875 29.3125 L 21.296875 28.472656 C 22.433594 29.042969 24.3125 29.3125 26.105469 29.3125 C 27.898438 29.3125 29.777344 29.042969 30.914062 28.472656 Z M 30.914062 27.167969 C 30.832031 27.464844 29.230469 28.242188 26.105469 28.242188 C 22.980469 28.242188 21.375 27.464844 21.296875 27.175781 L 21.296875 26.335938 C 22.433594 26.90625 24.3125 27.175781 26.105469 27.175781 C 27.898438 27.175781 29.777344 26.90625 30.914062 26.335938 Z M 30.914062 25.027344 C 30.832031 25.324219 29.230469 26.105469 26.105469 26.105469 C 22.980469 26.105469 21.375 25.324219 21.296875 25.039062 L 21.296875 24.199219 C 22.433594 24.769531 24.3125 25.039062 26.105469 25.039062 C 27.898438 25.039062 29.777344 24.765625 30.914062 24.195312 Z M 30.914062 22.890625 C 30.832031 23.1875 29.230469 23.96875 26.105469 23.96875 C 22.980469 23.96875 21.375 23.1875 21.296875 22.898438 L 21.296875 22.058594 C 22.433594 22.632812 24.3125 22.898438 26.105469 22.898438 C 27.898438 22.898438 29.777344 22.628906 30.914062 22.058594 Z M 30.914062 20.753906 C 30.832031 21.050781 29.230469 21.832031 26.105469 21.832031 C 22.980469 21.832031 21.375 21.050781 21.296875 20.761719 L 21.296875 19.921875 C 22.433594 20.492188 24.3125 20.761719 26.105469 20.761719 C 27.898438 20.761719 29.777344 20.492188 30.914062 19.921875 Z M 30.914062 18.617188 C 30.832031 18.914062 29.230469 19.695312 26.105469 19.695312 C 22.980469 19.695312 21.375 18.914062 21.296875 18.625 L 21.296875 17.785156 C 22.433594 18.355469 24.3125 18.625 26.105469 18.625 C 27.898438 18.625 29.777344 18.355469 30.914062 17.785156 Z M 26.105469 17.558594 C 22.984375 17.558594 21.382812 16.777344 21.296875 16.5 L 21.296875 16.496094 C 21.382812 16.195312 22.984375 15.417969 26.105469 15.417969 C 29.203125 15.417969 30.808594 16.1875 30.914062 16.488281 C 30.808594 16.789062 29.203125 17.558594 26.105469 17.558594 Z M 26.105469 17.558594 "/>
<path style=" stroke:none;fill-rule:nonzero;fill:rgb(0%,0%,0%);fill-opacity:1;" d="M 9.007812 21.371094 L 4.96875 21.371094 L 3.054688 19.277344 L 3.054688 15.804688 L 5.167969 13.742188 L 9.007812 13.742188 C 9.261719 13.742188 9.464844 13.535156 9.464844 13.28125 C 9.464844 13.03125 9.261719 12.824219 9.007812 12.824219 L 4.980469 12.824219 C 4.863281 12.824219 4.746094 12.871094 4.660156 12.953125 L 2.273438 15.28125 C 2.183594 15.386719 2.136719 15.519531 2.136719 15.65625 L 2.136719 19.457031 C 2.136719 19.570312 2.179688 19.679688 2.257812 19.765625 L 4.425781 22.140625 C 4.515625 22.234375 4.636719 22.289062 4.765625 22.289062 L 9.007812 22.289062 C 9.261719 22.289062 9.464844 22.082031 9.464844 21.832031 C 9.464844 21.578125 9.261719 21.371094 9.007812 21.371094 Z M 9.007812 21.371094 "/>
<path style=" stroke:none;fill-rule:nonzero;fill:rgb(0%,0%,0%);fill-opacity:1;" d="M 13.546875 17.023438 L 13.015625 17.023438 C 12.847656 17.023438 12.746094 16.929688 12.746094 16.890625 C 12.746094 16.847656 12.847656 16.753906 13.015625 16.753906 L 14.351562 16.753906 C 14.644531 16.753906 14.882812 16.515625 14.882812 16.222656 C 14.882812 15.925781 14.644531 15.6875 14.351562 15.6875 L 13.816406 15.6875 C 13.816406 15.390625 13.578125 15.152344 13.28125 15.152344 C 12.984375 15.152344 12.746094 15.390625 12.746094 15.6875 L 12.746094 15.710938 C 12.15625 15.792969 11.707031 16.289062 11.679688 16.886719 C 11.714844 17.585938 12.3125 18.125 13.015625 18.089844 L 13.546875 18.089844 C 13.714844 18.089844 13.816406 18.183594 13.816406 18.226562 C 13.816406 18.265625 13.714844 18.359375 13.546875 18.359375 L 12.210938 18.359375 C 11.917969 18.359375 11.679688 18.597656 11.679688 18.894531 C 11.679688 19.1875 11.917969 19.425781 12.210938 19.425781 L 12.746094 19.425781 C 12.746094 19.722656 12.984375 19.960938 13.28125 19.960938 C 13.578125 19.960938 13.816406 19.722656 13.816406 19.425781 L 13.816406 19.402344 C 14.410156 19.320312 14.855469 18.824219 14.882812 18.226562 C 14.847656 17.527344 14.25 16.988281 13.546875 17.023438 Z M 13.546875 17.023438 "/>
</g>
</svg>
