<?xml version="1.0" standalone="no"?>
<!DOCTYPE svg PUBLIC "-//W3C//DTD SVG 20010904//EN"
 "http://www.w3.org/TR/2001/REC-SVG-20010904/DTD/svg10.dtd">
<svg version="1.0" xmlns="http://www.w3.org/2000/svg"
 width="32.000000pt" height="32.000000pt" viewBox="0 0 32.000000 32.000000"
 preserveAspectRatio="xMidYMid meet">

<g transform="translate(0.000000,32.000000) scale(0.100000,-0.100000)"
fill="#000000" stroke="none">
<path d="M127 283 c-4 -3 -7 -14 -7 -23 0 -12 -21 -26 -62 -44 -35 -16 -57
-30 -52 -35 12 -12 140 -51 165 -51 33 0 119 49 131 75 17 38 5 50 -73 68 -82
19 -93 20 -102 10z m153 -65 c0 -11 -18 -27 -52 -44 l-51 -26 -65 18 -65 17
45 23 c25 13 48 32 50 42 5 19 8 19 72 4 51 -12 66 -20 66 -34z"/>
<path d="M239 129 l-67 -31 -81 25 c-45 14 -84 21 -87 16 -6 -11 22 -22 110
-46 l65 -17 68 32 c37 17 69 36 71 42 6 16 -8 12 -79 -21z"/>
<path d="M239 79 l-66 -31 -81 25 c-47 14 -84 21 -88 16 -3 -5 1 -11 8 -14 48
-17 146 -45 159 -45 23 0 149 60 149 71 0 14 -10 11 -81 -22z"/>
</g>
</svg>
