<?xml version="1.0" encoding="UTF-8"?>
<svg xmlns="http://www.w3.org/2000/svg" xmlns:xlink="http://www.w3.org/1999/xlink" width="32pt" height="32pt" viewBox="0 0 32 32" version="1.1">
<g id="surface1">
<path style=" stroke:none;fill-rule:nonzero;fill:rgb(0%,0%,0%);fill-opacity:1;" d="M 31.8125 15.175781 C 31.769531 15.113281 30.9375 14.011719 29.644531 13.121094 C 31.105469 11.605469 32 9.550781 32 7.296875 C 32 5.164062 31.203125 3.128906 29.753906 1.566406 C 29.472656 1.261719 29.019531 1.179688 28.648438 1.363281 C 28.277344 1.550781 28.070312 1.960938 28.144531 2.371094 C 28.863281 6.347656 25.859375 9.945312 21.894531 10.105469 C 18.28125 7.832031 13.722656 7.832031 10.109375 10.105469 C 6.140625 9.949219 3.136719 6.34375 3.855469 2.371094 C 3.929688 1.960938 3.722656 1.550781 3.351562 1.363281 C 2.980469 1.179688 2.527344 1.261719 2.246094 1.566406 C 0.796875 3.128906 0 5.164062 0 7.296875 C 0 9.550781 0.894531 11.605469 2.355469 13.121094 C 1.0625 14.011719 0.230469 15.113281 0.1875 15.175781 C -0.0625 15.507812 -0.0625 15.960938 0.1875 16.292969 C 0.285156 16.425781 2.601562 19.484375 5.625 19.484375 C 6.472656 19.484375 7.25 19.246094 7.886719 18.953125 C 8.226562 20.648438 8.914062 22.410156 9.925781 24.207031 C 9.527344 25.132812 9.441406 26.171875 9.691406 27.183594 C 10.214844 29.273438 12.085938 30.734375 14.242188 30.734375 L 17.757812 30.734375 C 19.914062 30.734375 21.785156 29.273438 22.308594 27.183594 C 22.554688 26.199219 22.476562 25.1875 22.101562 24.277344 C 23.132812 22.46875 23.828125 20.691406 24.175781 18.984375 C 24.800781 19.261719 25.554688 19.484375 26.375 19.484375 C 29.398438 19.484375 31.714844 16.425781 31.8125 16.296875 C 32.0625 15.960938 32.0625 15.507812 31.8125 15.175781 Z M 7.644531 16.964844 C 6.960938 17.378906 6.246094 17.609375 5.625 17.609375 C 4.1875 17.609375 2.863281 16.453125 2.175781 15.734375 C 2.566406 15.324219 3.167969 14.777344 3.878906 14.375 C 4.988281 15.089844 6.277344 15.558594 7.660156 15.691406 C 7.628906 16.109375 7.625 16.535156 7.644531 16.964844 Z M 7.957031 13.835938 C 4.558594 13.5625 1.875 10.734375 1.875 7.296875 C 1.875 6.695312 1.957031 6.105469 2.113281 5.539062 C 2.890625 8.710938 5.480469 11.191406 8.730469 11.824219 C 8.449219 12.355469 8.167969 13.027344 7.957031 13.835938 Z M 20.488281 26.730469 C 20.175781 27.984375 19.050781 28.859375 17.757812 28.859375 L 14.242188 28.859375 C 12.949219 28.859375 11.824219 27.984375 11.511719 26.730469 C 11.300781 25.882812 11.488281 25.003906 12.023438 24.316406 C 12.558594 23.628906 13.367188 23.234375 14.242188 23.234375 L 17.761719 23.234375 C 18.632812 23.234375 19.441406 23.628906 19.976562 24.316406 C 20.511719 25.003906 20.699219 25.882812 20.488281 26.730469 Z M 20.898438 22.5625 C 20.042969 21.789062 18.9375 21.359375 17.757812 21.359375 L 14.238281 21.359375 C 13.085938 21.359375 11.996094 21.773438 11.148438 22.519531 C 9.71875 19.71875 9.210938 17.046875 9.675781 14.726562 C 10.015625 13.039062 10.78125 12.023438 10.996094 11.761719 C 14.082031 9.761719 18.039062 9.78125 21.105469 11.828125 C 21.117188 11.835938 21.132812 11.84375 21.148438 11.851562 C 21.429688 12.21875 22.089844 13.199219 22.394531 14.742188 C 22.859375 17.070312 22.339844 19.75 20.898438 22.5625 Z M 24.109375 13.832031 C 23.898438 13.015625 23.613281 12.34375 23.332031 11.8125 C 26.550781 11.15625 29.113281 8.691406 29.886719 5.539062 C 30.042969 6.105469 30.125 6.695312 30.125 7.296875 C 30.125 10.710938 27.476562 13.527344 24.109375 13.832031 Z M 26.375 17.609375 C 25.773438 17.609375 25.082031 17.394531 24.425781 17.007812 C 24.445312 16.558594 24.441406 16.121094 24.410156 15.6875 C 25.765625 15.542969 27.03125 15.078125 28.121094 14.375 C 28.832031 14.773438 29.429688 15.324219 29.820312 15.734375 C 29.132812 16.453125 27.800781 17.609375 26.375 17.609375 Z M 26.375 17.609375 "/>
<path style=" stroke:none;fill-rule:nonzero;fill:rgb(0%,0%,0%);fill-opacity:1;" d="M 13.1875 16.671875 C 13.1875 17.191406 12.769531 17.609375 12.25 17.609375 C 11.730469 17.609375 11.3125 17.191406 11.3125 16.671875 C 11.3125 16.152344 11.730469 15.734375 12.25 15.734375 C 12.769531 15.734375 13.1875 16.152344 13.1875 16.671875 Z M 13.1875 16.671875 "/>
<path style=" stroke:none;fill-rule:nonzero;fill:rgb(0%,0%,0%);fill-opacity:1;" d="M 20.6875 16.671875 C 20.6875 17.191406 20.269531 17.609375 19.75 17.609375 C 19.230469 17.609375 18.8125 17.191406 18.8125 16.671875 C 18.8125 16.152344 19.230469 15.734375 19.75 15.734375 C 20.269531 15.734375 20.6875 16.152344 20.6875 16.671875 Z M 20.6875 16.671875 "/>
<path style=" stroke:none;fill-rule:nonzero;fill:rgb(0%,0%,0%);fill-opacity:1;" d="M 15.0625 26.046875 C 15.0625 26.566406 14.644531 26.984375 14.125 26.984375 C 13.605469 26.984375 13.1875 26.566406 13.1875 26.046875 C 13.1875 25.527344 13.605469 25.109375 14.125 25.109375 C 14.644531 25.109375 15.0625 25.527344 15.0625 26.046875 Z M 15.0625 26.046875 "/>
<path style=" stroke:none;fill-rule:nonzero;fill:rgb(0%,0%,0%);fill-opacity:1;" d="M 18.8125 26.046875 C 18.8125 26.566406 18.394531 26.984375 17.875 26.984375 C 17.355469 26.984375 16.9375 26.566406 16.9375 26.046875 C 16.9375 25.527344 17.355469 25.109375 17.875 25.109375 C 18.394531 25.109375 18.8125 25.527344 18.8125 26.046875 Z M 18.8125 26.046875 "/>
</g>
</svg>
