<?xml version="1.0" encoding="UTF-8"?>
<svg xmlns="http://www.w3.org/2000/svg" xmlns:xlink="http://www.w3.org/1999/xlink" width="32pt" height="32pt" viewBox="0 0 32 32" version="1.1">
<g id="surface1">
<path style=" stroke:none;fill-rule:nonzero;fill:rgb(0%,0%,0%);fill-opacity:1;" d="M 22.25 14.125 C 22.25 14.46875 21.96875 14.75 21.625 14.75 C 21.28125 14.75 21 14.46875 21 14.125 C 21 13.78125 21.28125 13.5 21.625 13.5 C 21.96875 13.5 22.25 13.78125 22.25 14.125 Z M 22.25 14.125 "/>
<path style=" stroke:none;fill-rule:nonzero;fill:rgb(0%,0%,0%);fill-opacity:1;" d="M 11 14.125 C 11 14.46875 10.71875 14.75 10.375 14.75 C 10.03125 14.75 9.75 14.46875 9.75 14.125 C 9.75 13.78125 10.03125 13.5 10.375 13.5 C 10.71875 13.5 11 13.78125 11 14.125 Z M 11 14.125 "/>
<path style=" stroke:none;fill-rule:nonzero;fill:rgb(0%,0%,0%);fill-opacity:1;" d="M 26.6875 0 C 24.457031 0 22.582031 1.363281 21.78125 3.273438 C 20.011719 3.101562 18.300781 3.46875 17.136719 3.71875 C 16.644531 3.824219 16.214844 3.914062 15.972656 3.925781 C 15.679688 3.914062 15.207031 3.816406 14.660156 3.703125 C 13.472656 3.453125 11.882812 3.125 10.210938 3.257812 C 9.398438 1.332031 7.515625 0 5.3125 0 C 2.382812 0 0 2.382812 0 5.3125 C 0 7.367188 1.199219 9.234375 3.023438 10.105469 C 1.539062 14.28125 0.691406 20.398438 2.960938 24.761719 C 4.179688 27.109375 6.136719 28.664062 8.78125 29.382812 C 9.5625 30.628906 11.054688 32 13.828125 32 L 18.171875 32 C 20.964844 32 22.457031 30.605469 23.234375 29.347656 C 25.152344 28.800781 26.710938 27.792969 27.875 26.351562 C 28.089844 26.082031 28.046875 25.691406 27.777344 25.472656 C 27.511719 25.257812 27.117188 25.300781 26.902344 25.566406 C 26.121094 26.535156 25.128906 27.273438 23.9375 27.777344 C 24.746094 25.160156 24.308594 21.707031 22.730469 19.015625 C 21.355469 16.667969 19.402344 15.375 17.234375 15.375 L 14.765625 15.375 C 12.582031 15.375 10.621094 16.683594 9.242188 19.054688 C 7.667969 21.761719 7.246094 25.222656 8.070312 27.828125 C 6.296875 27.113281 4.957031 25.890625 4.070312 24.1875 C 0.925781 18.136719 4.347656 7.875 6.933594 5.789062 C 9.085938 4.050781 11.722656 4.367188 14.40625 4.925781 C 15.050781 5.058594 15.558594 5.167969 15.960938 5.175781 C 15.972656 5.175781 15.984375 5.175781 15.996094 5.175781 C 16.347656 5.164062 16.8125 5.066406 17.394531 4.941406 C 20.078125 4.367188 22.761719 4.046875 24.921875 5.789062 C 26.96875 7.441406 29.769531 14.617188 28.871094 20.695312 C 28.820312 21.035156 29.054688 21.351562 29.394531 21.402344 C 29.738281 21.453125 30.054688 21.21875 30.105469 20.878906 C 30.578125 17.683594 30.109375 13.726562 28.847656 10.164062 C 30.703125 9.335938 32 7.488281 32 5.3125 C 32 2.382812 29.617188 0 26.6875 0 Z M 10.324219 19.683594 C 10.988281 18.539062 12.445312 16.625 14.765625 16.625 L 17.234375 16.625 C 19.535156 16.625 20.992188 18.519531 21.652344 19.648438 C 24.023438 23.691406 23.835938 30.75 18.171875 30.75 L 13.828125 30.75 C 8.511719 30.75 7.664062 24.257812 10.324219 19.683594 Z M 6.148438 4.816406 C 5.222656 5.5625 4.285156 7.015625 3.476562 8.9375 C 2.128906 8.253906 1.25 6.851562 1.25 5.3125 C 1.25 3.074219 3.074219 1.25 5.3125 1.25 C 6.867188 1.25 8.246094 2.113281 8.929688 3.457031 C 7.886719 3.710938 6.957031 4.164062 6.148438 4.816406 Z M 28.402344 8.996094 C 27.597656 7.066406 26.628906 5.558594 25.707031 4.816406 C 24.933594 4.191406 24.042969 3.75 23.050781 3.492188 C 23.730469 2.128906 25.117188 1.25 26.6875 1.25 C 28.925781 1.25 30.75 3.074219 30.75 5.3125 C 30.75 6.894531 29.808594 8.335938 28.402344 8.996094 Z M 28.402344 8.996094 "/>
<path style=" stroke:none;fill-rule:nonzero;fill:rgb(0%,0%,0%);fill-opacity:1;" d="M 15.375 23.109375 L 15.375 25.117188 L 13.683594 26.808594 C 13.4375 27.050781 13.4375 27.449219 13.683594 27.691406 C 13.925781 27.9375 14.324219 27.9375 14.566406 27.691406 L 16 26.257812 L 17.433594 27.691406 C 17.675781 27.9375 18.074219 27.9375 18.316406 27.691406 C 18.5625 27.449219 18.5625 27.050781 18.316406 26.808594 L 16.625 25.117188 L 16.625 23.109375 C 17.703125 22.832031 18.5 21.851562 18.5 20.6875 C 18.5 19.824219 17.542969 19.285156 16 19.285156 C 14.457031 19.285156 13.5 19.824219 13.5 20.6875 C 13.5 21.851562 14.296875 22.832031 15.375 23.109375 Z M 16 20.535156 C 16.660156 20.535156 17.101562 20.675781 17.246094 20.773438 C 17.203125 21.421875 16.660156 21.9375 16 21.9375 C 15.339844 21.9375 14.796875 21.421875 14.753906 20.773438 C 14.898438 20.675781 15.339844 20.535156 16 20.535156 Z M 16 20.535156 "/>
<path style=" stroke:none;fill-rule:nonzero;fill:rgb(0%,0%,0%);fill-opacity:1;" d="M 29.375 23.5 C 29.375 23.84375 29.09375 24.125 28.75 24.125 C 28.40625 24.125 28.125 23.84375 28.125 23.5 C 28.125 23.15625 28.40625 22.875 28.75 22.875 C 29.09375 22.875 29.375 23.15625 29.375 23.5 Z M 29.375 23.5 "/>
</g>
</svg>
